<svg class="thumbnail-icon" width="100%" viewBox="0 0 200 200" version="1.1" xmlns="http://www.w3.org/2000/svg" xmlns:xlink="http://www.w3.org/1999/xlink"><g data-paper-data="{&quot;fillRule&quot;:&quot;evenodd&quot;,&quot;isIcon&quot;:&quot;true&quot;,&quot;iconType&quot;:&quot;icon&quot;,&quot;rawIconId&quot;:&quot;1525171&quot;,&quot;selectedEffects&quot;:{&quot;container&quot;:&quot;&quot;,&quot;transformation&quot;:&quot;&quot;,&quot;pattern&quot;:&quot;&quot;},&quot;iconStyle&quot;:&quot;standalone&quot;,&quot;bounds&quot;:{&quot;x&quot;:70.27564867746324,&quot;y&quot;:194.89099002211253,&quot;width&quot;:91.96185688325119,&quot;height&quot;:80.21801995577488}}" style="fill: rgb(0, 0, 0);"><path d="M18.86995,187.22966c-3.02113,-0.49186 -5.90501,-1.86529 -8.15934,-4.11946c-2.47168,2.47168 -5.76725,3.29557 -9.06282,4.11946v-2.47168c3.29557,-0.82389 6.59114,-2.47168 9.06282,-4.94336c3.29557,4.11946 7.41504,5.76725 11.5345,4.94336c-3.29557,-5.76725 -8.23893,-19.77343 -9.06282,-23.069c-0.82389,0 -12.35839,-3.29557 -12.35839,-3.29557c-0.94159,-0.94171 -0.80708,-1.88342 -0.67257,-2.82513c0.10088,-0.70608 0.20177,-1.41215 -0.15133,-2.11823h3.29557l40.37075,-102.98661c0.82389,-1.64779 1.64779,-4.11946 1.64779,-6.59114v-8.23893c-4.11946,-2.47168 -9.88671,-0.82389 -15.65396,1.64779c4.11946,-5.76725 9.06282,-9.88671 15.65396,-12.35839v-0.82389c0,-0.82389 0.82389,-0.82389 0.82389,0v18.94954c0,3.29557 0.82389,4.94336 1.64779,7.41504c3.29557,5.76725 6.59114,12.35839 9.88671,18.94954c11.5345,3.29557 23.89289,3.29557 35.42739,0.82389c4.94336,-10.71061 10.71061,-20.59732 14.83007,-31.30793v-4.11946c0,-1.64779 0.82389,-2.47168 1.64779,-3.29557v-6.59114c-4.11946,-2.47168 -9.88671,-0.82389 -15.65396,1.64779c4.11946,-5.76725 9.06282,-9.88671 15.65396,-12.35839v-0.82389c0,-0.82389 0.82389,-0.82389 0.82389,0v18.12564c0.82389,0.82389 1.64779,1.64779 1.64779,3.29557v4.11946c1.64779,1.64779 3.29557,4.94336 6.59114,4.94336c1.64779,2.47168 2.47168,4.94336 4.11946,7.41504c14.00618,23.89289 42.84243,60.96807 60.96807,83.21318l14.00618,-4.94336c3.29557,-0.82389 2.47168,4.11946 0.82389,4.94336c-9.88671,4.11946 -36.25129,14.83007 -41.19464,22.24511c-1.64779,2.47168 -9.88671,20.59732 -11.5345,23.069c0,1.64779 -0.82389,2.47168 -1.64779,3.29557c5.76725,3.29557 13.18229,1.64779 17.30175,-3.29557c2.47168,2.47168 4.11946,4.11946 6.59114,4.94336v2.47168c-2.47168,-0.82389 -4.11946,-2.47168 -6.59114,-4.11946c-2.25417,2.25417 -5.1378,3.6276 -8.15901,4.11946h-5.10319c-3.02122,-0.49186 -5.90484,-1.86529 -8.15901,-4.11946c-2.25417,2.25417 -5.1378,3.6276 -8.15901,4.11946h-5.10319c-3.02122,-0.49186 -5.90484,-1.86529 -8.15901,-4.11946c-2.25417,2.25417 -5.1378,3.6276 -8.15901,4.11946h-5.10319c-3.02122,-0.49186 -5.90484,-1.86529 -8.15901,-4.11946c-2.57631,2.25417 -5.65602,3.6276 -8.7967,4.11946h-5.23996c-3.07024,-0.49186 -5.95411,-1.86529 -8.20844,-4.11946c-2.25434,2.25417 -5.13821,3.6276 -8.15934,4.11946h-5.10253c-3.02113,-0.49186 -5.90501,-1.86529 -8.15934,-4.11946c-2.25434,2.25417 -5.13821,3.6276 -8.15934,4.11946h-5.10253c-3.02113,-0.49186 -5.90501,-1.86529 -8.15934,-4.11946c-2.25434,2.25417 -5.13821,3.6276 -8.15934,4.11946zM112.04943,45.52008l3.29557,-0.82389c-1.64779,-0.82389 -2.47168,-2.47168 -3.29557,-3.29557zM105.45829,47.99176c0.82389,-1.64779 1.64779,-4.11946 2.47168,-5.76725v4.94336zM94.74768,69.41298c3.29557,-5.76725 5.76725,-12.35839 9.06282,-18.12564c0,8.23893 -0.82389,10.71061 -4.94336,16.47786c-1.64779,0.82389 -2.47168,1.64779 -4.11946,1.64779zM47.78579,53.75901c2.47168,4.94336 5.76725,9.88671 8.23893,14.83007c-1.64779,-0.82389 -4.11946,-1.64779 -5.76725,-2.47168c-0.82389,-3.29557 -1.64779,-7.41504 -2.47168,-12.35839zM145.82904,133.67662c7.41504,-30.48404 -7.41504,-56.84861 -23.069,-79.09372c0.69042,4.83197 0.2241,5.0372 -6.24428,7.88408c-1.25232,0.55102 -2.72956,1.20099 -4.46632,2.00264v4.94336l14.00618,-5.76725c6.59114,5.76725 15.65396,28.83625 6.59114,36.25129l-19.77343,7.41504l0.82389,4.94336l20.59732,-8.23893c4.94336,6.59114 5.76725,18.94954 3.29557,28.01236c2.47168,1.64779 4.94336,1.64779 8.23893,1.64779zM42.84243,56.23069c-5.76725,34.6035 -18.94954,55.20082 -33.77961,84.86097zM90.62822,114.72709c-4.11946,-4.94336 -9.06282,-10.71061 -13.18229,-16.47786c5.76725,-9.06282 11.5345,-18.12564 16.47786,-27.18847c4.94336,-0.82389 9.06282,-3.29557 14.00618,-4.94336v4.94336l-9.79938,4.08297c-0.02636,-0.03782 -0.05602,-0.02686 -0.08733,0.0365l0.08733,-0.0365c0.66571,0.94706 -0.30896,32.45339 -5.85458,39.58336zM56.84861,70.23687c5.76725,9.88671 12.35839,18.94954 18.94954,28.01236l-2.47168,2.47168c-6.59114,-6.59114 -17.30175,-15.65396 -22.24511,-32.95572c1.64779,0.82389 4.11946,1.64779 5.76725,2.47168zM76.62204,96.60144c-6.59114,-8.23893 -12.35839,-16.47786 -18.12564,-25.54068c10.71061,2.47168 22.24511,3.29557 33.77961,0.82389c-4.94336,8.23893 -9.88671,16.47786 -15.65396,24.71679zM46.96189,147.6828c-2.47168,0 -4.94336,-0.82389 -6.59114,-1.64779l4.94336,-70.85479zM54.37693,120.49434h-4.11946l-2.47168,-45.31411zM76.62204,99.07312c4.11946,5.76725 8.23893,11.5345 13.18229,16.47786c-4.11946,0.82389 -8.23893,2.47168 -13.18229,3.29557c-0.82389,-7.41504 -1.64779,-14.00618 -2.47168,-16.47786c0.82389,-0.82389 1.64779,-2.47168 2.47168,-3.29557zM95.57158,119.67044c-1.64779,-0.82389 -2.47168,-2.47168 -4.11946,-3.29557l16.47786,-6.59114v4.94336zM77.44593,119.67044c4.11946,-0.82389 9.06282,-1.64779 13.18229,-3.29557c1.64779,1.64779 2.47168,3.29557 4.11946,4.94336c0,9.88671 -3.29557,18.12564 -10.71061,26.36457c-0.82389,-3.29557 -2.47168,-6.59114 -3.29557,-9.88671c-0.82389,-5.76725 -2.47168,-12.35839 -3.29557,-18.12564zM55.20082,123.78991l-4.11946,4.11946l-0.82389,-5.76725h4.94336zM51.08136,129.55716c1.64779,-0.82389 3.29557,-2.47168 4.11946,-4.11946l4.11946,23.89289c-1.64779,0.54954 -3.29557,0.36581 -4.94336,0.1829c-0.82389,-0.09145 -1.64779,-0.1829 -2.47168,-0.1829zM146.65294,136.1483c-0.82389,1.64779 -1.64779,3.29557 -1.64779,6.59114c21.42122,-1.64779 33.77961,-7.41504 37.07518,-7.41504c-0.82389,-3.29557 -3.29557,-5.76725 -5.76725,-8.23893c-9.88671,1.64779 -19.77343,5.76725 -29.66014,9.06282zM140.20597,142.79382c1.48054,-0.03131 2.59609,-0.05438 3.15139,-0.05438c0.82389,-4.11946 1.64779,-4.94336 2.47168,-7.41504c-3.29557,0 -5.76725,-0.82389 -9.06282,-1.64779c-3.29557,3.29557 -15.65396,5.76725 -21.42122,8.23893c1.37013,1.37013 17.55304,1.03151 24.86097,0.87827zM84.86097,154.27394c-10.71061,0.82389 -20.59732,1.64779 -32.13182,1.64779l-0.82389,-4.94336c12.35839,1.64779 20.59732,-3.29557 28.01236,-11.5345zM4.94336,152.62616l5.76725,-12.35839c14.00618,0.82389 23.89289,5.76725 36.25129,9.06282v6.59114c-3.83168,1.64202 -6.57236,-0.71596 -9.18855,-2.96766c-1.32144,-1.13697 -2.61125,-2.24676 -3.99374,-2.79959zM106.28218,145.21112c-6.59114,1.64779 -14.00618,4.11946 -21.42122,5.76725c0.82389,0.82389 0.82389,1.64779 1.64779,3.29557c3.29557,0 6.59114,-0.82389 9.88671,-0.82389c4.94336,0 8.23893,-0.82389 9.88671,-8.23893z" fill-rule="evenodd"></path></g></svg>