<svg class="thumbnail-icon" width="100%" viewBox="0 0 200 200" version="1.1" xmlns="http://www.w3.org/2000/svg" xmlns:xlink="http://www.w3.org/1999/xlink"><g data-paper-data="{&quot;isIcon&quot;:&quot;true&quot;,&quot;rawInitialId&quot;:&quot;43&quot;,&quot;iconType&quot;:&quot;initial&quot;,&quot;initialText&quot;:&quot;S&quot;,&quot;selectedEffects&quot;:{&quot;container&quot;:&quot;&quot;,&quot;transformation&quot;:&quot;&quot;,&quot;pattern&quot;:&quot;&quot;},&quot;iconStyle&quot;:&quot;standalone&quot;,&quot;bounds&quot;:{&quot;x&quot;:197.1459974493528,&quot;y&quot;:132.4869159560831,&quot;width&quot;:155.7080051012944,&quot;height&quot;:154.85126081590025}}" style="fill: rgb(0, 0, 0);"><path d="M184.31912,58.59697c-3.57634,-1.74232 -8.29895,-3.71389 -14.16781,-5.91472c-5.86887,-2.20083 -12.51719,-4.28702 -19.94498,-6.2586c-7.42779,-1.97157 -15.49748,-3.62219 -24.20908,-4.95186c-8.7116,-1.32967 -17.65245,-1.9945 -26.82256,-1.9945c-7.33608,0 -13.59468,0.22925 -18.77579,0.68776c-5.18111,0.45851 -9.53691,1.05456 -13.0674,1.78817c-3.53049,0.73361 -6.32737,1.58184 -8.39065,2.5447c-2.06327,0.96286 -3.64512,1.94865 -4.74553,2.95736c-1.10041,1.00871 -1.8111,2.01742 -2.13205,3.02613c-0.32095,1.00871 -0.48143,1.92572 -0.48143,2.75103c0,2.75103 1.37552,5.15818 4.12655,7.22146c2.75103,2.06327 6.51077,3.89729 11.27923,5.50206c4.76845,1.60477 10.31637,3.11784 16.64374,4.5392c6.32737,1.42137 13.04448,2.88858 20.15131,4.40165c7.10683,1.51307 14.44292,3.16369 22.00825,4.95186c7.56534,1.78817 14.90142,3.87437 22.00825,6.2586c7.10683,2.38423 13.82393,5.15818 20.15131,8.32187c6.32737,3.16369 11.87529,6.85465 16.64374,11.0729c4.76845,4.21825 8.5282,9.0784 11.27923,14.58047c2.75103,5.50206 4.12655,11.78359 4.12655,18.84457c0,9.0784 -1.60477,16.87299 -4.81431,23.38377c-3.20954,6.51077 -7.49656,12.01284 -12.86107,16.50619c-5.36451,4.49335 -11.57726,8.09262 -18.63824,10.7978c-7.06098,2.70518 -14.46584,4.79138 -22.21458,6.2586c-7.74874,1.46722 -15.58918,2.43008 -23.52132,2.88858c-7.93214,0.45851 -15.47455,0.68776 -22.62724,0.68776c-18.70702,0 -36.01559,-1.53599 -51.92572,-4.60798c-15.91013,-3.07199 -29.96332,-6.9005 -42.15956,-11.48556v-45.11692c12.56304,6.96928 26.89133,12.42549 42.98487,16.36864c16.09354,3.94315 33.31041,5.91472 51.65062,5.91472c10.82072,0 19.64695,-0.57313 26.47868,-1.71939c6.83173,-1.14626 12.17331,-2.61348 16.02476,-4.40165c3.85144,-1.78817 6.46492,-3.73682 7.84044,-5.84594c1.37552,-2.10912 2.06327,-4.12655 2.06327,-6.05227c0,-3.02613 -1.37552,-5.66254 -4.12655,-7.90922c-2.75103,-2.24668 -6.51077,-4.21825 -11.27923,-5.91472c-4.76845,-1.69647 -10.31637,-3.25539 -16.64374,-4.67675c-6.32737,-1.42137 -13.04448,-2.84273 -20.15131,-4.2641c-7.10683,-1.42137 -14.41999,-2.95736 -21.93948,-4.60798c-7.51949,-1.65062 -14.83265,-3.59927 -21.93948,-5.84594c-7.10683,-2.24668 -13.82393,-4.86016 -20.15131,-7.84044c-6.32737,-2.98028 -11.87529,-6.51077 -16.64374,-10.59147c-4.76845,-4.0807 -8.5282,-8.8033 -11.27923,-14.16781c-2.75103,-5.36451 -4.12655,-11.57726 -4.12655,-18.63824c0,-8.3448 1.46722,-15.54333 4.40165,-21.5956c2.93443,-6.05227 6.9005,-11.21045 11.89821,-15.47455c4.99771,-4.2641 10.77487,-7.72581 17.3315,-10.38514c6.55663,-2.65933 13.45713,-4.7226 20.70151,-6.18982c7.24438,-1.46722 14.58047,-2.47593 22.00825,-3.02613c7.42779,-0.55021 14.48877,-0.82531 21.18294,-0.82531c7.33608,0 14.8785,0.3668 22.62724,1.10041c7.74874,0.73361 15.38285,1.76525 22.90234,3.09491c7.51949,1.32967 14.7868,2.86566 21.80193,4.60798c7.01513,1.74232 13.50298,3.57634 19.46355,5.50206z" fill-rule="undefined"></path></g></svg>