<svg id="ba206e33-bd1e-45a4-9f94-fdbf66c48cc6" data-name="Ebene 1" xmlns="http://www.w3.org/2000/svg" viewBox="0 0 360.94 135.03"><title>logo-type-name</title><path d="M381.7,332.79c-1-.48-2.26-1-3.85-1.61s-3.41-1.17-5.43-1.71a66.41,66.41,0,0,0-6.59-1.35,48.62,48.62,0,0,0-7.3-.54c-2,0-3.7.06-5.11.19a30.39,30.39,0,0,0-3.56.49,10.8,10.8,0,0,0-2.28.69,5.14,5.14,0,0,0-1.3.8,2,2,0,0,0-.58.83,2.69,2.69,0,0,0-.13.75,2.43,2.43,0,0,0,1.13,2,11,11,0,0,0,3.07,1.5A42.26,42.26,0,0,0,354.3,336q2.58.59,5.48,1.2c1.94.41,3.93.86,6,1.35s4.06,1.06,6,1.7a42.34,42.34,0,0,1,5.49,2.27,21.25,21.25,0,0,1,4.53,3,13.05,13.05,0,0,1,3.07,4,11.32,11.32,0,0,1,1.12,5.13,14.36,14.36,0,0,1-1.31,6.37,13.6,13.6,0,0,1-3.5,4.49,17.84,17.84,0,0,1-5.07,2.94,34.83,34.83,0,0,1-6,1.7,50.62,50.62,0,0,1-6.4.79c-2.16.12-4.21.19-6.16.19a74.45,74.45,0,0,1-14.14-1.26,71.19,71.19,0,0,1-11.47-3.12V354.46a46.91,46.91,0,0,0,11.7,4.46,59.12,59.12,0,0,0,14.06,1.61,45.36,45.36,0,0,0,7.21-.47,17.36,17.36,0,0,0,4.36-1.2,4.84,4.84,0,0,0,2.13-1.59,3,3,0,0,0,.56-1.64,2.71,2.71,0,0,0-1.12-2.16,10.31,10.31,0,0,0-3.07-1.61,40.69,40.69,0,0,0-4.53-1.27c-1.72-.39-3.55-.77-5.49-1.16s-3.92-.81-6-1.26-4-1-6-1.59a43.93,43.93,0,0,1-5.48-2.13,19.71,19.71,0,0,1-4.53-2.88,12.66,12.66,0,0,1-3.08-3.86,11.07,11.07,0,0,1-1.12-5.07,13.32,13.32,0,0,1,1.2-5.88,12.81,12.81,0,0,1,3.24-4.21,17,17,0,0,1,4.72-2.83,32,32,0,0,1,5.63-1.69,47.93,47.93,0,0,1,6-.82c2-.15,3.95-.22,5.77-.22,2,0,4.05.1,6.16.3s4.18.48,6.23.84,4,.78,5.94,1.25,3.67,1,5.29,1.5Z" transform="translate(-331.53 -316.99)"/><path d="M464.52,369.74V333.61l-19.09,36.13H432.1L413,333.61v36.13H399.11V318.3H418l20.78,38.94,20.78-38.94h18.8v51.44Z" transform="translate(-331.53 -316.99)"/><path d="M535.78,360H507.1l-4.83,9.73H486.76l26.92-51.44h15.51l26.92,51.44h-15.5Zm-23.71-10h18.8L521.51,331Z" transform="translate(-331.53 -316.99)"/><path d="M611.93,332.79c-1-.48-2.26-1-3.85-1.61s-3.41-1.17-5.43-1.71a67,67,0,0,0-6.59-1.35,48.62,48.62,0,0,0-7.3-.54c-2,0-3.71.06-5.12.19a30.18,30.18,0,0,0-3.55.49,11.11,11.11,0,0,0-2.29.69,5.25,5.25,0,0,0-1.29.8,2,2,0,0,0-.58.83,2.37,2.37,0,0,0-.13.75,2.42,2.42,0,0,0,1.12,2,11.25,11.25,0,0,0,3.07,1.5,43.59,43.59,0,0,0,4.53,1.23q2.6.59,5.49,1.2t6,1.35q3.09.74,6,1.7a42.93,42.93,0,0,1,5.49,2.27,21.25,21.25,0,0,1,4.53,3,13.21,13.21,0,0,1,3.07,4,11.32,11.32,0,0,1,1.12,5.13,14.36,14.36,0,0,1-1.31,6.37,13.6,13.6,0,0,1-3.5,4.49,17.84,17.84,0,0,1-5.07,2.94,35.08,35.08,0,0,1-6.05,1.7,50.62,50.62,0,0,1-6.4.79c-2.16.12-4.22.19-6.16.19a74.3,74.3,0,0,1-14.14-1.26,71.19,71.19,0,0,1-11.47-3.12V354.46a46.91,46.91,0,0,0,11.7,4.46,59.06,59.06,0,0,0,14.06,1.61,45.23,45.23,0,0,0,7.2-.47,17.46,17.46,0,0,0,4.37-1.2,4.9,4.9,0,0,0,2.13-1.59,3,3,0,0,0,.56-1.64,2.71,2.71,0,0,0-1.12-2.16,10.31,10.31,0,0,0-3.07-1.61,40.69,40.69,0,0,0-4.53-1.27c-1.72-.39-3.55-.77-5.49-1.16s-3.92-.81-6-1.26-4-1-6-1.59a44.09,44.09,0,0,1-5.49-2.13,20.15,20.15,0,0,1-4.53-2.88,12.78,12.78,0,0,1-3.07-3.86,10.94,10.94,0,0,1-1.12-5.07,13.32,13.32,0,0,1,1.2-5.88,12.81,12.81,0,0,1,3.24-4.21,17.06,17.06,0,0,1,4.71-2.83,32.32,32.32,0,0,1,5.64-1.69,47.93,47.93,0,0,1,6-.82q3-.22,5.77-.22c2,0,4.05.1,6.16.3s4.18.48,6.23.84,4,.78,5.93,1.25,3.68,1,5.3,1.5Z" transform="translate(-331.53 -316.99)"/><path d="M678.58,369.74V348.29H643.23v21.45H629.34V318.3h13.89V337h35.35V318.3h13.89v51.44Z" transform="translate(-331.53 -316.99)"/><path d="M331.53,450.21v-67h6.1v61.29h48.94v5.7Z" transform="translate(-331.53 -316.99)"/><path d="M491.26,416.77A35,35,0,0,1,488,432.56a30.51,30.51,0,0,1-9.1,11,39.35,39.35,0,0,1-13.64,6.4,66.46,66.46,0,0,1-17,2.07,67.25,67.25,0,0,1-17.06-2.07,39.94,39.94,0,0,1-13.74-6.4,30.34,30.34,0,0,1-9.15-11A35.16,35.16,0,0,1,405,416.77a37.41,37.41,0,0,1,1.53-11,31.43,31.43,0,0,1,4.31-8.9,29,29,0,0,1,6.69-6.8,39.21,39.21,0,0,1,8.76-4.77,50.4,50.4,0,0,1,10.35-2.82,71.26,71.26,0,0,1,11.62-.91,66.46,66.46,0,0,1,17,2.07,39.35,39.35,0,0,1,13.64,6.4,30.51,30.51,0,0,1,9.1,11,35,35,0,0,1,3.31,15.8Zm-6.38,0A32.53,32.53,0,0,0,482.54,404a24.14,24.14,0,0,0-7-9.32A31.27,31.27,0,0,0,464.14,389a65.27,65.27,0,0,0-31.83,0,32.11,32.11,0,0,0-11.55,5.76,24,24,0,0,0-7,9.34,35.32,35.32,0,0,0,0,25.44,24,24,0,0,0,7,9.32,31.76,31.76,0,0,0,11.55,5.73,65.59,65.59,0,0,0,31.83,0,31.27,31.27,0,0,0,11.45-5.73,24.14,24.14,0,0,0,7-9.32A32.51,32.51,0,0,0,484.88,416.77Z" transform="translate(-331.53 -316.99)"/><path d="M553.4,381.52a74.68,74.68,0,0,1,8.75.47,67.79,67.79,0,0,1,7.76,1.33,73.27,73.27,0,0,1,7.22,2.08c2.34.8,4.69,1.7,7.07,2.69v7.52a67.18,67.18,0,0,0-6-3.37,50.2,50.2,0,0,0-6.87-2.76,53.26,53.26,0,0,0-7.91-1.88,56.31,56.31,0,0,0-9.07-.7A64.15,64.15,0,0,0,537.08,389a35,35,0,0,0-12.26,5.93,24.39,24.39,0,0,0-7.34,9.4A30.51,30.51,0,0,0,515,416.77a29.33,29.33,0,0,0,2.4,11.93,24.82,24.82,0,0,0,7.27,9.42,35.39,35.39,0,0,0,12.19,6.18A58.88,58.88,0,0,0,554,446.53q3.86,0,7.64-.3c2.52-.2,4.9-.45,7.14-.77s4.29-.66,6.13-1,3.41-.77,4.7-1.17V422.65H552v-5.79h33.82v29.86q-3.66,1.29-7.39,2.28t-7.71,1.65q-4,.68-8.26,1t-9,.34a69.75,69.75,0,0,1-17.8-2.15,41.93,41.93,0,0,1-14.21-6.52,31,31,0,0,1-9.42-11,33.53,33.53,0,0,1-3.41-15.57,35.37,35.37,0,0,1,1.58-10.91,30.22,30.22,0,0,1,11.44-15.69,40.09,40.09,0,0,1,9.05-4.82,55.35,55.35,0,0,1,10.7-2.87,72.55,72.55,0,0,1,12-1Z" transform="translate(-331.53 -316.99)"/><path d="M692.47,416.77a35.16,35.16,0,0,1-3.31,15.79,30.51,30.51,0,0,1-9.1,11,39.4,39.4,0,0,1-13.65,6.4A66.38,66.38,0,0,1,649.46,452a67.19,67.19,0,0,1-17.06-2.07,39.94,39.94,0,0,1-13.74-6.4,30.34,30.34,0,0,1-9.15-11,35,35,0,0,1-3.31-15.79,37.41,37.41,0,0,1,1.53-11,31.41,31.41,0,0,1,4.3-8.9,29.21,29.21,0,0,1,6.7-6.8,39.36,39.36,0,0,1,8.75-4.77,50.67,50.67,0,0,1,10.36-2.82,71.18,71.18,0,0,1,11.62-.91,66.38,66.38,0,0,1,16.95,2.07,39.4,39.4,0,0,1,13.65,6.4,30.51,30.51,0,0,1,9.1,11A35.17,35.17,0,0,1,692.47,416.77Zm-6.38,0A32.34,32.34,0,0,0,683.74,404a24,24,0,0,0-6.94-9.32A31.27,31.27,0,0,0,665.35,389a65.31,65.31,0,0,0-31.84,0A32.14,32.14,0,0,0,622,394.74a24,24,0,0,0-7,9.34,35.32,35.32,0,0,0,0,25.44,24,24,0,0,0,7,9.32,31.79,31.79,0,0,0,11.54,5.73,58.45,58.45,0,0,0,16,2,57.79,57.79,0,0,0,15.89-2,31.27,31.27,0,0,0,11.45-5.73,24,24,0,0,0,6.94-9.32A32.33,32.33,0,0,0,686.09,416.77Z" transform="translate(-331.53 -316.99)"/></svg>